<?xml version="1.0" standalone="no"?>
<!DOCTYPE svg PUBLIC "-//W3C//DTD SVG 20010904//EN"
 "http://www.w3.org/TR/2001/REC-SVG-20010904/DTD/svg10.dtd">
<svg version="1.0" xmlns="http://www.w3.org/2000/svg"
 width="200.000000pt" height="200.000000pt" viewBox="0 0 200.000000 200.000000"
 preserveAspectRatio="xMidYMid meet">
<metadata>
Created by potrace 1.11, written by Peter Selinger 2001-2013
</metadata>
<g transform="translate(0.000000,200.000000) scale(0.100000,-0.100000)"
fill="#000000" stroke="none">
<path d="M1516 1984 c-72 -23 -149 -103 -172 -179 -39 -137 19 -270 146 -337
66 -34 176 -32 245 4 102 53 150 134 150 248 0 62 -5 84 -27 126 -66 126 -202
181 -342 138z"/>
<path d="M810 1925 c-370 -74 -663 -357 -757 -731 -27 -109 -24 -353 5 -464
84 -316 329 -577 635 -678 465 -154 961 54 1177 493 67 136 90 230 97 390 5
141 -12 262 -56 375 -32 82 -36 88 -58 68 -10 -10 -45 -30 -78 -45 -54 -25
-70 -28 -170 -28 -103 0 -114 2 -178 32 -199 95 -293 324 -216 528 11 28 19
51 19 51 0 1 -28 7 -63 13 -84 15 -275 12 -357 -4z"/>
</g>
</svg>
