<svg width="335" height="63" viewBox="0 0 335 63" fill="none" xmlns="http://www.w3.org/2000/svg">
<path d="M6.49601 28H0.880005V3.05199H17.908V7.80399H6.49601V28Z" fill="black"/>
<path d="M36.8648 18.496C36.8648 19.984 36.6488 21.352 36.2168 22.6C35.7848 23.824 35.1608 24.88 34.3448 25.768C33.5288 26.632 32.5448 27.304 31.3928 27.784C30.2648 28.264 28.9928 28.504 27.5768 28.504C26.1848 28.504 24.9128 28.264 23.7608 27.784C22.6328 27.304 21.6608 26.632 20.8448 25.768C20.0288 24.88 19.3928 23.824 18.9368 22.6C18.4808 21.352 18.2528 19.984 18.2528 18.496C18.2528 17.008 18.4808 15.652 18.9368 14.428C19.4168 13.204 20.0648 12.16 20.8808 11.296C21.7208 10.432 22.7048 9.75999 23.8328 9.27999C24.9848 8.79999 26.2328 8.55999 27.5768 8.55999C28.9448 8.55999 30.1928 8.79999 31.3208 9.27999C32.4728 9.75999 33.4568 10.432 34.2728 11.296C35.0888 12.16 35.7248 13.204 36.1808 14.428C36.6368 15.652 36.8648 17.008 36.8648 18.496ZM31.3928 18.496C31.3928 16.84 31.0568 15.544 30.3848 14.608C29.7368 13.648 28.8008 13.168 27.5768 13.168C26.3528 13.168 25.4048 13.648 24.7328 14.608C24.0608 15.544 23.7248 16.84 23.7248 18.496C23.7248 20.152 24.0608 21.472 24.7328 22.456C25.4048 23.416 26.3528 23.896 27.5768 23.896C28.8008 23.896 29.7368 23.416 30.3848 22.456C31.0568 21.472 31.3928 20.152 31.3928 18.496Z" fill="black"/>
<path d="M53.152 18.676C53.152 17.02 52.78 15.7 52.036 14.716C51.292 13.708 50.188 13.204 48.724 13.204C48.244 13.204 47.8 13.228 47.392 13.276C46.984 13.3 46.648 13.336 46.384 13.384V23.068C46.72 23.284 47.152 23.464 47.68 23.608C48.232 23.752 48.784 23.824 49.336 23.824C51.88 23.824 53.152 22.108 53.152 18.676ZM58.624 18.532C58.624 19.996 58.444 21.328 58.084 22.528C57.724 23.728 57.196 24.76 56.5 25.624C55.804 26.488 54.94 27.16 53.908 27.64C52.876 28.12 51.688 28.36 50.344 28.36C49.6 28.36 48.904 28.288 48.256 28.144C47.608 28 46.984 27.796 46.384 27.532V34.66H41.02V9.71199C41.5 9.56799 42.052 9.43599 42.676 9.31599C43.3 9.17199 43.948 9.05199 44.62 8.95599C45.316 8.85999 46.012 8.78799 46.708 8.73999C47.428 8.66799 48.112 8.63199 48.76 8.63199C50.32 8.63199 51.712 8.87199 52.936 9.35199C54.16 9.80799 55.192 10.468 56.032 11.332C56.872 12.172 57.508 13.204 57.94 14.428C58.396 15.652 58.624 17.02 58.624 18.532Z" fill="black"/>
<path d="M60.9466 23.608H63.2866C63.9586 22.792 64.4746 21.784 64.8346 20.584C65.2186 19.36 65.4826 18.076 65.6266 16.732C65.7946 15.364 65.8906 14.008 65.9146 12.664C65.9386 11.32 65.9506 10.12 65.9506 9.06399H80.7106V23.608H83.9146V33.4H79.3426V28H65.5186V33.4H60.9466V23.608ZM75.3466 23.608V13.456H70.9546C70.9066 14.296 70.8466 15.172 70.7746 16.084C70.7266 16.972 70.6186 17.86 70.4506 18.748C70.3066 19.612 70.1026 20.464 69.8386 21.304C69.5746 22.144 69.2266 22.912 68.7946 23.608H75.3466Z" fill="black"/>
<path d="M86.245 18.676C86.245 16.996 86.497 15.532 87.001 14.284C87.529 13.012 88.213 11.956 89.053 11.116C89.893 10.276 90.853 9.63999 91.933 9.20799C93.037 8.77599 94.165 8.55999 95.317 8.55999C98.005 8.55999 100.129 9.38799 101.689 11.044C103.249 12.676 104.029 15.088 104.029 18.28C104.029 18.592 104.017 18.94 103.993 19.324C103.969 19.684 103.945 20.008 103.921 20.296H91.753C91.873 21.4 92.389 22.276 93.301 22.924C94.213 23.572 95.437 23.896 96.973 23.896C97.957 23.896 98.917 23.812 99.853 23.644C100.813 23.452 101.593 23.224 102.193 22.96L102.913 27.316C102.625 27.46 102.241 27.604 101.761 27.748C101.281 27.892 100.741 28.012 100.141 28.108C99.565 28.228 98.941 28.324 98.269 28.396C97.597 28.468 96.925 28.504 96.253 28.504C94.549 28.504 93.061 28.252 91.789 27.748C90.541 27.244 89.497 26.56 88.657 25.696C87.841 24.808 87.229 23.764 86.821 22.564C86.437 21.364 86.245 20.068 86.245 18.676ZM98.845 16.624C98.821 16.168 98.737 15.724 98.593 15.292C98.473 14.86 98.269 14.476 97.981 14.14C97.717 13.804 97.369 13.528 96.937 13.312C96.529 13.096 96.013 12.988 95.389 12.988C94.789 12.988 94.273 13.096 93.841 13.312C93.409 13.504 93.049 13.768 92.761 14.104C92.473 14.44 92.245 14.836 92.077 15.292C91.933 15.724 91.825 16.168 91.753 16.624H98.845Z" fill="black"/>
<path d="M125.412 9.06399V28H120.012C120.012 26.8 120.024 25.612 120.048 24.436C120.072 23.236 120.096 22.132 120.12 21.124C120.144 20.116 120.168 19.24 120.192 18.496C120.24 17.728 120.264 17.164 120.264 16.804C119.568 17.788 118.872 18.784 118.176 19.792C117.48 20.8 116.808 21.796 116.16 22.78C115.536 23.74 114.936 24.664 114.36 25.552C113.808 26.44 113.316 27.256 112.884 28H108.168V9.06399H113.532C113.532 10.264 113.52 11.416 113.496 12.52C113.496 13.6 113.484 14.584 113.46 15.472C113.436 16.36 113.412 17.14 113.388 17.812C113.364 18.46 113.352 18.964 113.352 19.324C114.792 17.212 116.112 15.316 117.312 13.636C118.536 11.956 119.724 10.432 120.876 9.06399H125.412ZM116.88 6.47199C116.112 6.47199 115.368 6.36399 114.648 6.14799C113.952 5.90799 113.316 5.57199 112.74 5.13999C112.164 4.68399 111.684 4.14399 111.3 3.51999C110.94 2.87199 110.724 2.13999 110.652 1.32399L114.36 0.35199C114.552 1.26399 114.864 1.91199 115.296 2.29599C115.752 2.67999 116.28 2.87199 116.88 2.87199C117.504 2.87199 118.032 2.70399 118.464 2.36799C118.92 2.00799 119.244 1.34799 119.436 0.38799L123.108 1.35999C123.036 2.17599 122.808 2.90799 122.424 3.55599C122.064 4.17999 121.596 4.70799 121.02 5.13999C120.468 5.57199 119.832 5.90799 119.112 6.14799C118.392 6.36399 117.648 6.47199 116.88 6.47199Z" fill="black"/>
<path d="M159.986 3.05199V28H154.37V7.80399H145.082V28H139.466V3.05199H159.986Z" fill="black"/>
<path d="M164.503 18.676C164.503 16.996 164.755 15.532 165.259 14.284C165.787 13.012 166.471 11.956 167.311 11.116C168.151 10.276 169.111 9.63999 170.191 9.20799C171.295 8.77599 172.423 8.55999 173.575 8.55999C176.263 8.55999 178.387 9.38799 179.947 11.044C181.507 12.676 182.287 15.088 182.287 18.28C182.287 18.592 182.275 18.94 182.251 19.324C182.227 19.684 182.203 20.008 182.179 20.296H170.011C170.131 21.4 170.647 22.276 171.559 22.924C172.471 23.572 173.695 23.896 175.231 23.896C176.215 23.896 177.175 23.812 178.111 23.644C179.071 23.452 179.851 23.224 180.451 22.96L181.171 27.316C180.883 27.46 180.499 27.604 180.019 27.748C179.539 27.892 178.999 28.012 178.399 28.108C177.823 28.228 177.199 28.324 176.527 28.396C175.855 28.468 175.183 28.504 174.511 28.504C172.807 28.504 171.319 28.252 170.047 27.748C168.799 27.244 167.755 26.56 166.915 25.696C166.099 24.808 165.487 23.764 165.079 22.564C164.695 21.364 164.503 20.068 164.503 18.676ZM177.103 16.624C177.079 16.168 176.995 15.724 176.851 15.292C176.731 14.86 176.527 14.476 176.239 14.14C175.975 13.804 175.627 13.528 175.195 13.312C174.787 13.096 174.271 12.988 173.647 12.988C173.047 12.988 172.531 13.096 172.099 13.312C171.667 13.504 171.307 13.768 171.019 14.104C170.731 14.44 170.503 14.836 170.335 15.292C170.191 15.724 170.083 16.168 170.011 16.624H177.103Z" fill="black"/>
<path d="M198.558 18.676C198.558 17.02 198.186 15.7 197.442 14.716C196.698 13.708 195.594 13.204 194.13 13.204C193.65 13.204 193.206 13.228 192.798 13.276C192.39 13.3 192.054 13.336 191.79 13.384V23.068C192.126 23.284 192.558 23.464 193.086 23.608C193.638 23.752 194.19 23.824 194.742 23.824C197.286 23.824 198.558 22.108 198.558 18.676ZM204.03 18.532C204.03 19.996 203.85 21.328 203.49 22.528C203.13 23.728 202.602 24.76 201.906 25.624C201.21 26.488 200.346 27.16 199.314 27.64C198.282 28.12 197.094 28.36 195.75 28.36C195.006 28.36 194.31 28.288 193.662 28.144C193.014 28 192.39 27.796 191.79 27.532V34.66H186.426V9.71199C186.906 9.56799 187.458 9.43599 188.082 9.31599C188.706 9.17199 189.354 9.05199 190.026 8.95599C190.722 8.85999 191.418 8.78799 192.114 8.73999C192.834 8.66799 193.518 8.63199 194.166 8.63199C195.726 8.63199 197.118 8.87199 198.342 9.35199C199.566 9.80799 200.598 10.468 201.438 11.332C202.278 12.172 202.914 13.204 203.346 14.428C203.802 15.652 204.03 17.02 204.03 18.532Z" fill="black"/>
<path d="M207.253 18.676C207.253 16.996 207.505 15.532 208.009 14.284C208.537 13.012 209.221 11.956 210.061 11.116C210.901 10.276 211.861 9.63999 212.941 9.20799C214.045 8.77599 215.173 8.55999 216.325 8.55999C219.013 8.55999 221.137 9.38799 222.697 11.044C224.257 12.676 225.037 15.088 225.037 18.28C225.037 18.592 225.025 18.94 225.001 19.324C224.977 19.684 224.953 20.008 224.929 20.296H212.761C212.881 21.4 213.397 22.276 214.309 22.924C215.221 23.572 216.445 23.896 217.981 23.896C218.965 23.896 219.925 23.812 220.861 23.644C221.821 23.452 222.601 23.224 223.201 22.96L223.921 27.316C223.633 27.46 223.249 27.604 222.769 27.748C222.289 27.892 221.749 28.012 221.149 28.108C220.573 28.228 219.949 28.324 219.277 28.396C218.605 28.468 217.933 28.504 217.261 28.504C215.557 28.504 214.069 28.252 212.797 27.748C211.549 27.244 210.505 26.56 209.665 25.696C208.849 24.808 208.237 23.764 207.829 22.564C207.445 21.364 207.253 20.068 207.253 18.676ZM219.853 16.624C219.829 16.168 219.745 15.724 219.601 15.292C219.481 14.86 219.277 14.476 218.989 14.14C218.725 13.804 218.377 13.528 217.945 13.312C217.537 13.096 217.021 12.988 216.397 12.988C215.797 12.988 215.281 13.096 214.849 13.312C214.417 13.504 214.057 13.768 213.769 14.104C213.481 14.44 213.253 14.836 213.085 15.292C212.941 15.724 212.833 16.168 212.761 16.624H219.853Z" fill="black"/>
<path d="M236.173 14.824L239.917 9.06399H245.461L238.981 18.172C240.421 19.972 241.729 21.724 242.905 23.428C244.081 25.132 245.017 26.656 245.713 28H239.953C239.761 27.64 239.521 27.196 239.233 26.668C238.945 26.116 238.621 25.552 238.261 24.976C237.901 24.376 237.517 23.788 237.109 23.212C236.725 22.612 236.341 22.072 235.957 21.592C235.597 22.048 235.225 22.552 234.841 23.104C234.481 23.656 234.133 24.22 233.797 24.796C233.461 25.348 233.125 25.9 232.789 26.452C232.477 27.004 232.201 27.52 231.961 28H226.489C226.777 27.4 227.173 26.692 227.677 25.876C228.181 25.06 228.721 24.22 229.297 23.356C229.897 22.468 230.521 21.592 231.169 20.728C231.817 19.84 232.453 19.012 233.077 18.244C231.997 16.732 230.917 15.208 229.837 13.672C228.757 12.112 227.689 10.576 226.633 9.06399H232.429L236.173 14.824Z" fill="black"/>
<path d="M265.416 18.496C265.416 19.984 265.2 21.352 264.768 22.6C264.336 23.824 263.712 24.88 262.896 25.768C262.08 26.632 261.096 27.304 259.944 27.784C258.816 28.264 257.544 28.504 256.128 28.504C254.736 28.504 253.464 28.264 252.312 27.784C251.184 27.304 250.212 26.632 249.396 25.768C248.58 24.88 247.944 23.824 247.488 22.6C247.032 21.352 246.804 19.984 246.804 18.496C246.804 17.008 247.032 15.652 247.488 14.428C247.968 13.204 248.616 12.16 249.432 11.296C250.272 10.432 251.256 9.75999 252.384 9.27999C253.536 8.79999 254.784 8.55999 256.128 8.55999C257.496 8.55999 258.744 8.79999 259.872 9.27999C261.024 9.75999 262.008 10.432 262.824 11.296C263.64 12.16 264.276 13.204 264.732 14.428C265.188 15.652 265.416 17.008 265.416 18.496ZM259.944 18.496C259.944 16.84 259.608 15.544 258.936 14.608C258.288 13.648 257.352 13.168 256.128 13.168C254.904 13.168 253.956 13.648 253.284 14.608C252.612 15.544 252.276 16.84 252.276 18.496C252.276 20.152 252.612 21.472 253.284 22.456C253.956 23.416 254.904 23.896 256.128 23.896C257.352 23.896 258.288 23.416 258.936 22.456C259.608 21.472 259.944 20.152 259.944 18.496Z" fill="black"/>
<path d="M267.771 23.608H270.111C270.783 22.792 271.299 21.784 271.659 20.584C272.043 19.36 272.307 18.076 272.451 16.732C272.619 15.364 272.715 14.008 272.739 12.664C272.763 11.32 272.775 10.12 272.775 9.06399H287.535V23.608H290.739V33.4H286.167V28H272.343V33.4H267.771V23.608ZM282.171 23.608V13.456H277.779C277.731 14.296 277.671 15.172 277.599 16.084C277.551 16.972 277.443 17.86 277.275 18.748C277.131 19.612 276.927 20.464 276.663 21.304C276.399 22.144 276.051 22.912 275.619 23.608H282.171Z" fill="black"/>
<path d="M311.681 18.496C311.681 19.984 311.465 21.352 311.033 22.6C310.601 23.824 309.977 24.88 309.161 25.768C308.345 26.632 307.361 27.304 306.209 27.784C305.081 28.264 303.809 28.504 302.393 28.504C301.001 28.504 299.729 28.264 298.577 27.784C297.449 27.304 296.477 26.632 295.661 25.768C294.845 24.88 294.209 23.824 293.753 22.6C293.297 21.352 293.069 19.984 293.069 18.496C293.069 17.008 293.297 15.652 293.753 14.428C294.233 13.204 294.881 12.16 295.697 11.296C296.537 10.432 297.521 9.75999 298.649 9.27999C299.801 8.79999 301.049 8.55999 302.393 8.55999C303.761 8.55999 305.009 8.79999 306.137 9.27999C307.289 9.75999 308.273 10.432 309.089 11.296C309.905 12.16 310.541 13.204 310.997 14.428C311.453 15.652 311.681 17.008 311.681 18.496ZM306.209 18.496C306.209 16.84 305.873 15.544 305.201 14.608C304.553 13.648 303.617 13.168 302.393 13.168C301.169 13.168 300.221 13.648 299.549 14.608C298.877 15.544 298.541 16.84 298.541 18.496C298.541 20.152 298.877 21.472 299.549 22.456C300.221 23.416 301.169 23.896 302.393 23.896C303.617 23.896 304.553 23.416 305.201 22.456C305.873 21.472 306.209 20.152 306.209 18.496Z" fill="black"/>
<path d="M321.2 24.04C321.536 24.088 321.98 24.136 322.532 24.184C323.108 24.208 323.636 24.22 324.116 24.22C325.316 24.22 326.252 24.076 326.924 23.788C327.596 23.476 327.932 22.924 327.932 22.132C327.932 21.364 327.62 20.836 326.996 20.548C326.396 20.236 325.508 20.08 324.332 20.08H321.2V24.04ZM324.224 16.48C325.112 16.48 325.832 16.372 326.384 16.156C326.936 15.916 327.212 15.412 327.212 14.644C327.212 13.924 326.9 13.432 326.276 13.168C325.652 12.904 324.836 12.772 323.828 12.772C323.492 12.772 323.048 12.796 322.496 12.844C321.968 12.868 321.536 12.904 321.2 12.952V16.48H324.224ZM324.044 28.36C323.372 28.36 322.652 28.336 321.884 28.288C321.116 28.24 320.36 28.168 319.616 28.072C318.872 28 318.164 27.916 317.492 27.82C316.844 27.7 316.292 27.592 315.836 27.496V9.35199C316.292 9.25599 316.844 9.17199 317.492 9.09999C318.164 9.00399 318.872 8.91999 319.616 8.84799C320.36 8.77599 321.116 8.72799 321.884 8.70399C322.652 8.65599 323.372 8.63199 324.044 8.63199C325.604 8.63199 326.912 8.78799 327.968 9.09999C329.048 9.41199 329.912 9.81999 330.56 10.324C331.232 10.828 331.712 11.392 332 12.016C332.288 12.64 332.432 13.264 332.432 13.888C332.432 14.728 332.228 15.496 331.82 16.192C331.412 16.888 330.896 17.392 330.272 17.704C330.608 17.848 330.944 18.052 331.28 18.316C331.64 18.58 331.964 18.904 332.252 19.288C332.54 19.648 332.768 20.092 332.936 20.62C333.128 21.124 333.224 21.712 333.224 22.384C333.224 23.152 333.068 23.896 332.756 24.616C332.468 25.336 331.964 25.972 331.244 26.524C330.524 27.076 329.576 27.52 328.4 27.856C327.224 28.192 325.772 28.36 324.044 28.36Z" fill="black"/>
<path d="M185.364 45.032C185.868 45.032 186.33 45.086 186.75 45.194C187.17 45.29 187.494 45.386 187.722 45.482L187.2 47.624C186.96 47.516 186.696 47.438 186.408 47.39C186.132 47.33 185.874 47.3 185.634 47.3C185.31 47.3 185.034 47.348 184.806 47.444C184.59 47.528 184.416 47.648 184.284 47.804C184.164 47.96 184.074 48.146 184.014 48.362C183.966 48.578 183.942 48.812 183.942 49.064V49.532H187.254V51.764H183.942V59H181.26V49.028C181.26 47.804 181.602 46.832 182.286 46.112C182.982 45.392 184.008 45.032 185.364 45.032Z" fill="black"/>
<path d="M196.936 58.676C196.48 58.808 195.892 58.928 195.172 59.036C194.452 59.156 193.696 59.216 192.904 59.216C192.1 59.216 191.428 59.108 190.888 58.892C190.36 58.676 189.94 58.376 189.628 57.992C189.316 57.596 189.094 57.128 188.962 56.588C188.83 56.048 188.764 55.454 188.764 54.806V49.532H191.446V54.482C191.446 55.346 191.56 55.97 191.788 56.354C192.016 56.738 192.442 56.93 193.066 56.93C193.258 56.93 193.462 56.924 193.678 56.912C193.894 56.888 194.086 56.864 194.254 56.84V49.532H196.936V58.676Z" fill="black"/>
<path d="M203.233 59.18C202.453 59.168 201.817 59.084 201.325 58.928C200.845 58.772 200.461 58.556 200.173 58.28C199.897 57.992 199.705 57.65 199.597 57.254C199.501 56.846 199.453 56.39 199.453 55.886V45.464L202.135 45.032V55.346C202.135 55.586 202.153 55.802 202.189 55.994C202.225 56.186 202.291 56.348 202.387 56.48C202.495 56.612 202.645 56.72 202.837 56.804C203.029 56.888 203.287 56.942 203.611 56.966L203.233 59.18Z" fill="black"/>
<path d="M208.929 59.18C208.149 59.168 207.513 59.084 207.021 58.928C206.541 58.772 206.157 58.556 205.869 58.28C205.593 57.992 205.401 57.65 205.293 57.254C205.197 56.846 205.149 56.39 205.149 55.886V45.464L207.831 45.032V55.346C207.831 55.586 207.849 55.802 207.885 55.994C207.921 56.186 207.987 56.348 208.083 56.48C208.191 56.612 208.341 56.72 208.533 56.804C208.725 56.888 208.983 56.942 209.307 56.966L208.929 59.18Z" fill="black"/>
<path d="M213.562 57.074C214.054 57.074 214.402 57.026 214.606 56.93C214.81 56.834 214.912 56.648 214.912 56.372C214.912 56.156 214.78 55.97 214.516 55.814C214.252 55.646 213.85 55.46 213.31 55.256C212.89 55.1 212.506 54.938 212.158 54.77C211.822 54.602 211.534 54.404 211.294 54.176C211.054 53.936 210.868 53.654 210.736 53.33C210.604 53.006 210.538 52.616 210.538 52.16C210.538 51.272 210.868 50.57 211.528 50.054C212.188 49.538 213.094 49.28 214.246 49.28C214.822 49.28 215.374 49.334 215.902 49.442C216.43 49.538 216.85 49.646 217.162 49.766L216.694 51.854C216.382 51.746 216.04 51.65 215.668 51.566C215.308 51.482 214.9 51.44 214.444 51.44C213.604 51.44 213.184 51.674 213.184 52.142C213.184 52.25 213.202 52.346 213.238 52.43C213.274 52.514 213.346 52.598 213.454 52.682C213.562 52.754 213.706 52.838 213.886 52.934C214.078 53.018 214.318 53.114 214.606 53.222C215.194 53.438 215.68 53.654 216.064 53.87C216.448 54.074 216.748 54.302 216.964 54.554C217.192 54.794 217.348 55.064 217.432 55.364C217.528 55.664 217.576 56.012 217.576 56.408C217.576 57.344 217.222 58.052 216.514 58.532C215.818 59.012 214.828 59.252 213.544 59.252C212.704 59.252 212.002 59.18 211.438 59.036C210.886 58.892 210.502 58.772 210.286 58.676L210.736 56.498C211.192 56.678 211.66 56.822 212.14 56.93C212.62 57.026 213.094 57.074 213.562 57.074Z" fill="black"/>
<path d="M219.49 47.174L222.172 46.742V49.532H225.394V51.764H222.172V55.094C222.172 55.658 222.268 56.108 222.46 56.444C222.664 56.78 223.066 56.948 223.666 56.948C223.954 56.948 224.248 56.924 224.548 56.876C224.86 56.816 225.142 56.738 225.394 56.642L225.772 58.73C225.448 58.862 225.088 58.976 224.692 59.072C224.296 59.168 223.81 59.216 223.234 59.216C222.502 59.216 221.896 59.12 221.416 58.928C220.936 58.724 220.552 58.448 220.264 58.1C219.976 57.74 219.772 57.308 219.652 56.804C219.544 56.3 219.49 55.742 219.49 55.13V47.174Z" fill="black"/>
<path d="M230.845 57.128C231.109 57.128 231.361 57.122 231.601 57.11C231.841 57.098 232.033 57.08 232.177 57.056V55.022C232.069 54.998 231.907 54.974 231.691 54.95C231.475 54.926 231.277 54.914 231.097 54.914C230.845 54.914 230.605 54.932 230.377 54.968C230.161 54.992 229.969 55.046 229.801 55.13C229.633 55.214 229.501 55.328 229.405 55.472C229.309 55.616 229.261 55.796 229.261 56.012C229.261 56.432 229.399 56.726 229.675 56.894C229.963 57.05 230.353 57.128 230.845 57.128ZM230.629 49.28C231.421 49.28 232.081 49.37 232.609 49.55C233.137 49.73 233.557 49.988 233.869 50.324C234.193 50.66 234.421 51.068 234.553 51.548C234.685 52.028 234.751 52.562 234.751 53.15V58.73C234.367 58.814 233.833 58.91 233.149 59.018C232.465 59.138 231.637 59.198 230.665 59.198C230.053 59.198 229.495 59.144 228.991 59.036C228.499 58.928 228.073 58.754 227.713 58.514C227.353 58.262 227.077 57.938 226.885 57.542C226.693 57.146 226.597 56.66 226.597 56.084C226.597 55.532 226.705 55.064 226.921 54.68C227.149 54.296 227.449 53.99 227.821 53.762C228.193 53.534 228.619 53.372 229.099 53.276C229.579 53.168 230.077 53.114 230.593 53.114C230.941 53.114 231.247 53.132 231.511 53.168C231.787 53.192 232.009 53.228 232.177 53.276V53.024C232.177 52.568 232.039 52.202 231.763 51.926C231.487 51.65 231.007 51.512 230.323 51.512C229.867 51.512 229.417 51.548 228.973 51.62C228.529 51.68 228.145 51.77 227.821 51.89L227.479 49.73C227.635 49.682 227.827 49.634 228.055 49.586C228.295 49.526 228.553 49.478 228.829 49.442C229.105 49.394 229.393 49.358 229.693 49.334C230.005 49.298 230.317 49.28 230.629 49.28Z" fill="black"/>
<path d="M236.726 54.266C236.726 53.582 236.834 52.94 237.05 52.34C237.278 51.728 237.602 51.2 238.022 50.756C238.442 50.3 238.952 49.94 239.552 49.676C240.152 49.412 240.836 49.28 241.604 49.28C242.108 49.28 242.57 49.328 242.99 49.424C243.41 49.508 243.818 49.634 244.214 49.802L243.656 51.944C243.404 51.848 243.128 51.764 242.828 51.692C242.528 51.62 242.192 51.584 241.82 51.584C241.028 51.584 240.434 51.83 240.038 52.322C239.654 52.814 239.462 53.462 239.462 54.266C239.462 55.118 239.642 55.778 240.002 56.246C240.374 56.714 241.016 56.948 241.928 56.948C242.252 56.948 242.6 56.918 242.972 56.858C243.344 56.798 243.686 56.702 243.998 56.57L244.376 58.766C244.064 58.898 243.674 59.012 243.206 59.108C242.738 59.204 242.222 59.252 241.658 59.252C240.794 59.252 240.05 59.126 239.426 58.874C238.802 58.61 238.286 58.256 237.878 57.812C237.482 57.368 237.188 56.846 236.996 56.246C236.816 55.634 236.726 54.974 236.726 54.266Z" fill="black"/>
<path d="M248.858 52.952C249.122 52.664 249.392 52.364 249.668 52.052C249.956 51.74 250.232 51.434 250.496 51.134C250.76 50.822 251.006 50.528 251.234 50.252C251.474 49.976 251.678 49.736 251.846 49.532H255.032C254.396 50.264 253.772 50.966 253.16 51.638C252.56 52.298 251.9 52.982 251.18 53.69C251.54 54.014 251.912 54.404 252.296 54.86C252.68 55.304 253.052 55.766 253.412 56.246C253.772 56.726 254.102 57.206 254.402 57.686C254.702 58.166 254.954 58.604 255.158 59H252.08C251.888 58.688 251.666 58.346 251.414 57.974C251.174 57.59 250.916 57.212 250.64 56.84C250.364 56.456 250.07 56.09 249.758 55.742C249.458 55.394 249.158 55.1 248.858 54.86V59H246.176V45.464L248.858 45.032V52.952Z" fill="black"/>
<path d="M263.21 54.194C263.21 55.022 263.396 55.688 263.768 56.192C264.14 56.696 264.692 56.948 265.424 56.948C265.664 56.948 265.886 56.942 266.09 56.93C266.294 56.906 266.462 56.882 266.594 56.858V51.98C266.426 51.872 266.204 51.782 265.928 51.71C265.664 51.638 265.394 51.602 265.118 51.602C263.846 51.602 263.21 52.466 263.21 54.194ZM269.276 58.694C269.036 58.766 268.76 58.838 268.448 58.91C268.136 58.97 267.806 59.024 267.458 59.072C267.122 59.12 266.774 59.156 266.414 59.18C266.066 59.216 265.73 59.234 265.406 59.234C264.626 59.234 263.93 59.12 263.318 58.892C262.706 58.664 262.19 58.34 261.77 57.92C261.35 57.488 261.026 56.972 260.798 56.372C260.582 55.76 260.474 55.076 260.474 54.32C260.474 53.552 260.57 52.862 260.762 52.25C260.954 51.626 261.23 51.098 261.59 50.666C261.95 50.234 262.388 49.904 262.904 49.676C263.432 49.448 264.032 49.334 264.704 49.334C265.076 49.334 265.406 49.37 265.694 49.442C265.994 49.514 266.294 49.616 266.594 49.748V45.464L269.276 45.032V58.694Z" fill="black"/>
<path d="M271.337 54.338C271.337 53.498 271.463 52.766 271.715 52.142C271.979 51.506 272.321 50.978 272.741 50.558C273.161 50.138 273.641 49.82 274.181 49.604C274.733 49.388 275.297 49.28 275.873 49.28C277.217 49.28 278.279 49.694 279.059 50.522C279.839 51.338 280.229 52.544 280.229 54.14C280.229 54.296 280.223 54.47 280.211 54.662C280.199 54.842 280.187 55.004 280.175 55.148H274.091C274.151 55.7 274.409 56.138 274.865 56.462C275.321 56.786 275.933 56.948 276.701 56.948C277.193 56.948 277.673 56.906 278.141 56.822C278.621 56.726 279.011 56.612 279.311 56.48L279.671 58.658C279.527 58.73 279.335 58.802 279.095 58.874C278.855 58.946 278.585 59.006 278.285 59.054C277.997 59.114 277.685 59.162 277.349 59.198C277.013 59.234 276.677 59.252 276.341 59.252C275.489 59.252 274.745 59.126 274.109 58.874C273.485 58.622 272.963 58.28 272.543 57.848C272.135 57.404 271.829 56.882 271.625 56.282C271.433 55.682 271.337 55.034 271.337 54.338ZM277.637 53.312C277.625 53.084 277.583 52.862 277.511 52.646C277.451 52.43 277.349 52.238 277.205 52.07C277.073 51.902 276.899 51.764 276.683 51.656C276.479 51.548 276.221 51.494 275.909 51.494C275.609 51.494 275.351 51.548 275.135 51.656C274.919 51.752 274.739 51.884 274.595 52.052C274.451 52.22 274.337 52.418 274.253 52.646C274.181 52.862 274.127 53.084 274.091 53.312H277.637Z" fill="black"/>
<path d="M285.017 57.074C285.509 57.074 285.857 57.026 286.061 56.93C286.265 56.834 286.367 56.648 286.367 56.372C286.367 56.156 286.235 55.97 285.971 55.814C285.707 55.646 285.305 55.46 284.765 55.256C284.345 55.1 283.961 54.938 283.613 54.77C283.277 54.602 282.989 54.404 282.749 54.176C282.509 53.936 282.323 53.654 282.191 53.33C282.059 53.006 281.993 52.616 281.993 52.16C281.993 51.272 282.323 50.57 282.983 50.054C283.643 49.538 284.549 49.28 285.701 49.28C286.277 49.28 286.829 49.334 287.357 49.442C287.885 49.538 288.305 49.646 288.617 49.766L288.149 51.854C287.837 51.746 287.495 51.65 287.123 51.566C286.763 51.482 286.355 51.44 285.899 51.44C285.059 51.44 284.639 51.674 284.639 52.142C284.639 52.25 284.657 52.346 284.693 52.43C284.729 52.514 284.801 52.598 284.909 52.682C285.017 52.754 285.161 52.838 285.341 52.934C285.533 53.018 285.773 53.114 286.061 53.222C286.649 53.438 287.135 53.654 287.519 53.87C287.903 54.074 288.203 54.302 288.419 54.554C288.647 54.794 288.803 55.064 288.887 55.364C288.983 55.664 289.031 56.012 289.031 56.408C289.031 57.344 288.677 58.052 287.969 58.532C287.273 59.012 286.283 59.252 284.999 59.252C284.159 59.252 283.457 59.18 282.893 59.036C282.341 58.892 281.957 58.772 281.741 58.676L282.191 56.498C282.647 56.678 283.115 56.822 283.595 56.93C284.075 57.026 284.549 57.074 285.017 57.074Z" fill="black"/>
<path d="M293.717 59H291.035V49.532H293.717V59ZM293.969 46.796C293.969 47.288 293.807 47.678 293.483 47.966C293.171 48.242 292.799 48.38 292.367 48.38C291.935 48.38 291.557 48.242 291.233 47.966C290.921 47.678 290.765 47.288 290.765 46.796C290.765 46.304 290.921 45.92 291.233 45.644C291.557 45.356 291.935 45.212 292.367 45.212C292.799 45.212 293.171 45.356 293.483 45.644C293.807 45.92 293.969 46.304 293.969 46.796Z" fill="black"/>
<path d="M298.525 53.96C298.525 55.46 299.131 56.21 300.343 56.21C300.619 56.21 300.877 56.174 301.117 56.102C301.357 56.03 301.561 55.946 301.729 55.85V51.566C301.597 51.542 301.441 51.524 301.261 51.512C301.081 51.488 300.871 51.476 300.631 51.476C299.923 51.476 299.395 51.71 299.047 52.178C298.699 52.646 298.525 53.24 298.525 53.96ZM304.411 57.812C304.411 59.36 304.015 60.506 303.223 61.25C302.443 62.006 301.231 62.384 299.587 62.384C299.011 62.384 298.435 62.33 297.859 62.222C297.283 62.126 296.749 61.994 296.257 61.826L296.725 59.576C297.145 59.744 297.583 59.876 298.039 59.972C298.507 60.068 299.035 60.116 299.623 60.116C300.391 60.116 300.931 59.948 301.243 59.612C301.567 59.276 301.729 58.844 301.729 58.316V57.974C301.441 58.106 301.141 58.208 300.829 58.28C300.529 58.34 300.199 58.37 299.839 58.37C298.531 58.37 297.529 57.986 296.833 57.218C296.137 56.438 295.789 55.352 295.789 53.96C295.789 53.264 295.897 52.634 296.113 52.07C296.329 51.494 296.641 51.002 297.049 50.594C297.469 50.186 297.979 49.874 298.579 49.658C299.179 49.43 299.857 49.316 300.613 49.316C300.937 49.316 301.267 49.334 301.603 49.37C301.951 49.394 302.293 49.43 302.629 49.478C302.965 49.526 303.283 49.586 303.583 49.658C303.895 49.718 304.171 49.784 304.411 49.856V57.812Z" fill="black"/>
<path d="M306.926 49.856C307.382 49.724 307.97 49.604 308.69 49.496C309.41 49.376 310.166 49.316 310.958 49.316C311.762 49.316 312.428 49.424 312.956 49.64C313.496 49.844 313.922 50.138 314.234 50.522C314.546 50.906 314.768 51.362 314.9 51.89C315.032 52.418 315.098 53.006 315.098 53.654V59H312.416V53.978C312.416 53.114 312.302 52.502 312.074 52.142C311.846 51.782 311.42 51.602 310.796 51.602C310.604 51.602 310.4 51.614 310.184 51.638C309.968 51.65 309.776 51.668 309.608 51.692V59H306.926V49.856Z" fill="black"/>
<path d="M317.076 54.338C317.076 53.498 317.202 52.766 317.454 52.142C317.718 51.506 318.06 50.978 318.48 50.558C318.9 50.138 319.38 49.82 319.92 49.604C320.472 49.388 321.036 49.28 321.612 49.28C322.956 49.28 324.018 49.694 324.798 50.522C325.578 51.338 325.968 52.544 325.968 54.14C325.968 54.296 325.962 54.47 325.95 54.662C325.938 54.842 325.926 55.004 325.914 55.148H319.83C319.89 55.7 320.148 56.138 320.604 56.462C321.06 56.786 321.672 56.948 322.44 56.948C322.932 56.948 323.412 56.906 323.88 56.822C324.36 56.726 324.75 56.612 325.05 56.48L325.41 58.658C325.266 58.73 325.074 58.802 324.834 58.874C324.594 58.946 324.324 59.006 324.024 59.054C323.736 59.114 323.424 59.162 323.088 59.198C322.752 59.234 322.416 59.252 322.08 59.252C321.228 59.252 320.484 59.126 319.848 58.874C319.224 58.622 318.702 58.28 318.282 57.848C317.874 57.404 317.568 56.882 317.364 56.282C317.172 55.682 317.076 55.034 317.076 54.338ZM323.376 53.312C323.364 53.084 323.322 52.862 323.25 52.646C323.19 52.43 323.088 52.238 322.944 52.07C322.812 51.902 322.638 51.764 322.422 51.656C322.218 51.548 321.96 51.494 321.648 51.494C321.348 51.494 321.09 51.548 320.874 51.656C320.658 51.752 320.478 51.884 320.334 52.052C320.19 52.22 320.076 52.418 319.992 52.646C319.92 52.862 319.866 53.084 319.83 53.312H323.376Z" fill="black"/>
<path d="M333.743 51.908C333.503 51.848 333.221 51.788 332.897 51.728C332.573 51.656 332.225 51.62 331.853 51.62C331.685 51.62 331.481 51.638 331.241 51.674C331.013 51.698 330.839 51.728 330.719 51.764V59H328.037V50.036C328.517 49.868 329.081 49.712 329.729 49.568C330.389 49.412 331.121 49.334 331.925 49.334C332.069 49.334 332.243 49.346 332.447 49.37C332.651 49.382 332.855 49.406 333.059 49.442C333.263 49.466 333.467 49.502 333.671 49.55C333.875 49.586 334.049 49.634 334.193 49.694L333.743 51.908Z" fill="black"/>
</svg>
